<?xml version="1.0" encoding="UTF-8" standalone="no"?>
<svg
   viewBox="0 0 640 640"
   version="1.1"
   id="svg1"
   sodipodi:docname="6.svg"
   inkscape:version="1.4.2 (f4327f4, 2025-05-13)"
   xmlns:inkscape="http://www.inkscape.org/namespaces/inkscape"
   xmlns:sodipodi="http://sodipodi.sourceforge.net/DTD/sodipodi-0.dtd"
   xmlns="http://www.w3.org/2000/svg"
   xmlns:svg="http://www.w3.org/2000/svg">
  <defs
     id="defs1" />
  <sodipodi:namedview
     id="namedview1"
     pagecolor="#ffffff"
     bordercolor="#000000"
     borderopacity="0.25"
     inkscape:showpageshadow="2"
     inkscape:pageopacity="0.0"
     inkscape:pagecheckerboard="0"
     inkscape:deskcolor="#d1d1d1"
     inkscape:zoom="1.2609375"
     inkscape:cx="319.60347"
     inkscape:cy="320"
     inkscape:window-width="1920"
     inkscape:window-height="1009"
     inkscape:window-x="-8"
     inkscape:window-y="-8"
     inkscape:window-maximized="1"
     inkscape:current-layer="svg1" />
  <!--!Font Awesome Free 7.1.0 by @fontawesome - https://fontawesome.com License - https://fontawesome.com/license/free Copyright 2025 Fonticons, Inc.-->
  <path
     d="M160 64C151.1 64 142.6 67.7 136.6 74.2C130.6 80.7 127.4 89.4 128.1 98.3L156.9 501.7C159.9 543.6 194.7 576 236.7 576L403.3 576C445.3 576 480.1 543.6 483.1 501.7L511.9 98.3C512.5 89.4 509.5 80.7 503.4 74.2C497.3 67.7 488.9 64 480 64L160 64zM211 361.5L194.4 128L445.6 128L429 361.5L416 368C395.9 378.1 372.1 378.1 352 368C331.9 357.9 308.1 357.9 288 368C267.9 378.1 244.1 378.1 224 368L211 361.5zM384 260C384 236 350.3 189.9 331.8 166.5C325.7 158.8 314.3 158.8 308.2 166.5C289.7 189.9 256 236 256 260C256 293.1 284.7 320 320 320C355.3 320 384 293.1 384 260z"
     id="path1"
     style="fill:#ffffff;fill-opacity:1" />
</svg>
