<?xml version="1.0" encoding="UTF-8" standalone="no"?>
<svg
   viewBox="0 0 640 640"
   version="1.1"
   id="svg1"
   sodipodi:docname="12.svg"
   inkscape:version="1.4.2 (f4327f4, 2025-05-13)"
   xmlns:inkscape="http://www.inkscape.org/namespaces/inkscape"
   xmlns:sodipodi="http://sodipodi.sourceforge.net/DTD/sodipodi-0.dtd"
   xmlns="http://www.w3.org/2000/svg"
   xmlns:svg="http://www.w3.org/2000/svg">
  <defs
     id="defs1" />
  <sodipodi:namedview
     id="namedview1"
     pagecolor="#ffffff"
     bordercolor="#000000"
     borderopacity="0.25"
     inkscape:showpageshadow="2"
     inkscape:pageopacity="0.0"
     inkscape:pagecheckerboard="0"
     inkscape:deskcolor="#d1d1d1"
     inkscape:zoom="1.2609375"
     inkscape:cx="319.60347"
     inkscape:cy="320"
     inkscape:window-width="1920"
     inkscape:window-height="1009"
     inkscape:window-x="-8"
     inkscape:window-y="-8"
     inkscape:window-maximized="1"
     inkscape:current-layer="svg1" />
  <!--!Font Awesome Free 7.1.0 by @fontawesome - https://fontawesome.com License - https://fontawesome.com/license/free Copyright 2025 Fonticons, Inc.-->
  <path
     d="M0 320C0 231.6 71.6 160 160 160C210.4 160 257.8 183.7 288 224L320 266.7L352 224C382.2 183.7 429.6 160 480 160C568.4 160 640 231.6 640 320C640 408.4 568.4 480 480 480C429.6 480 382.2 456.3 352 416L320 373.3L288 416C257.8 456.3 210.4 480 160 480C71.6 480 0 408.4 0 320zM280 320L236.8 262.4C218.7 238.2 190.2 224 160 224C107 224 64 267 64 320C64 373 107 416 160 416C190.2 416 218.7 401.8 236.8 377.6L280 320zM360 320L403.2 377.6C421.3 401.8 449.8 416 480 416C533 416 576 373 576 320C576 267 533 224 480 224C449.8 224 421.3 238.2 403.2 262.4L360 320z"
     id="path1"
     style="fill:#ffffff;fill-opacity:1" />
</svg>
