<?xml version="1.0" encoding="UTF-8" standalone="no"?>
<svg
   viewBox="0 0 640 640"
   version="1.1"
   id="svg1"
   sodipodi:docname="2.svg"
   inkscape:version="1.4.2 (f4327f4, 2025-05-13)"
   xmlns:inkscape="http://www.inkscape.org/namespaces/inkscape"
   xmlns:sodipodi="http://sodipodi.sourceforge.net/DTD/sodipodi-0.dtd"
   xmlns="http://www.w3.org/2000/svg"
   xmlns:svg="http://www.w3.org/2000/svg">
  <defs
     id="defs1" />
  <sodipodi:namedview
     id="namedview1"
     pagecolor="#ffffff"
     bordercolor="#000000"
     borderopacity="0.25"
     inkscape:showpageshadow="2"
     inkscape:pageopacity="0.0"
     inkscape:pagecheckerboard="0"
     inkscape:deskcolor="#d1d1d1"
     inkscape:zoom="1.2609375"
     inkscape:cx="319.60347"
     inkscape:cy="320"
     inkscape:window-width="1920"
     inkscape:window-height="1009"
     inkscape:window-x="-8"
     inkscape:window-y="-8"
     inkscape:window-maximized="1"
     inkscape:current-layer="svg1" />
  <!--!Font Awesome Free 7.1.0 by @fontawesome - https://fontawesome.com License - https://fontawesome.com/license/free Copyright 2025 Fonticons, Inc.-->
  <path
     d="M64 240C64 204.7 92.7 176 128 176C128.5 176 129.1 176 129.6 176C137 139.5 169.3 112 208 112C223 112 237 116.1 248.9 123.2C262.2 97.5 289 80 320 80C351 80 377.8 97.6 391.1 123.2C403.1 116.1 417.1 112 432 112C470.7 112 503 139.5 510.4 176C510.9 176 511.5 176 512 176C547.3 176 576 204.7 576 240C576 251.7 572.9 262.6 567.4 272L72.6 272C67.1 262.6 64 251.7 64 240zM64 347.4C64 332.3 76.3 320 91.4 320L548.5 320C563.6 320 575.9 332.3 575.9 347.4C575.9 417.9 531.5 478.1 469.2 501.5L467.5 516C465.5 532 451.9 544 435.7 544L204.2 544C188.1 544 174.4 532 172.4 516L170.6 501.6C108.4 478.1 64 417.9 64 347.4z"
     id="path1"
     style="fill:#ffffff;fill-opacity:1" />
</svg>
