<?xml version="1.0" encoding="UTF-8" standalone="no"?>
<svg
   viewBox="0 0 640 640"
   version="1.1"
   id="svg1"
   sodipodi:docname="4.svg"
   inkscape:version="1.4.2 (f4327f4, 2025-05-13)"
   xmlns:inkscape="http://www.inkscape.org/namespaces/inkscape"
   xmlns:sodipodi="http://sodipodi.sourceforge.net/DTD/sodipodi-0.dtd"
   xmlns="http://www.w3.org/2000/svg"
   xmlns:svg="http://www.w3.org/2000/svg">
  <defs
     id="defs1" />
  <sodipodi:namedview
     id="namedview1"
     pagecolor="#ffffff"
     bordercolor="#000000"
     borderopacity="0.25"
     inkscape:showpageshadow="2"
     inkscape:pageopacity="0.0"
     inkscape:pagecheckerboard="0"
     inkscape:deskcolor="#d1d1d1"
     inkscape:zoom="1.2609375"
     inkscape:cx="319.60347"
     inkscape:cy="320"
     inkscape:window-width="1920"
     inkscape:window-height="1009"
     inkscape:window-x="-8"
     inkscape:window-y="-8"
     inkscape:window-maximized="1"
     inkscape:current-layer="svg1" />
  <!--!Font Awesome Free 7.1.0 by @fontawesome - https://fontawesome.com License - https://fontawesome.com/license/free Copyright 2025 Fonticons, Inc.-->
  <path
     d="M320 205.3L320 514.6L320.5 514.4C375.1 491.7 433.7 480 492.8 480L512 480L512 160L492.8 160C450.6 160 408.7 168.4 369.7 184.6C352.9 191.6 336.3 198.5 320 205.3zM294.9 125.5L320 136L345.1 125.5C391.9 106 442.1 96 492.8 96L528 96C554.5 96 576 117.5 576 144L576 496C576 522.5 554.5 544 528 544L492.8 544C442.1 544 391.9 554 345.1 573.5L332.3 578.8C324.4 582.1 315.6 582.1 307.7 578.8L294.9 573.5C248.1 554 197.9 544 147.2 544L112 544C85.5 544 64 522.5 64 496L64 144C64 117.5 85.5 96 112 96L147.2 96C197.9 96 248.1 106 294.9 125.5z"
     id="path1"
     style="fill:#ffffff;fill-opacity:1" />
</svg>
